<mxfile host="app.diagrams.net" modified="2024-05-21T13:12:53.733Z" agent="Mozilla/5.0 (Macintosh; Intel Mac OS X 10_15_7) AppleWebKit/605.1.15 (KHTML, like Gecko) Version/17.5 Safari/605.1.15" version="24.4.4" etag="C6WeEi4-zY0XO4t7yFpj" type="github">
  <diagram name="Page-1" id="ZsJS_RIsbBulBu6CpA8U">
    <mxGraphModel>
      <root>
        <mxCell id="0" />
        <mxCell id="1" parent="0" />
      </root>
    </mxGraphModel>
  </diagram>
</mxfile>
